<svg xmlns="http://www.w3.org/2000/svg" xmlns:xlink="http://www.w3.org/1999/xlink" viewBox="0 0 53.67 53.67">
  <defs>
    <style>
      .a {
        fill: #fff;
      }

      .b {
        clip-path: url(#a);
      }

      .c {
        fill: #6d4829;
      }

      .d {
        fill: #40c5af;
      }

      .e {
        fill: #e1bc8f;
      }

      .f {
        fill: #c49970;
      }

      .g, .i {
        fill: none;
        stroke: #fff;
      }

      .g {
        stroke-linecap: round;
        stroke-linejoin: round;
        stroke-width: 0.31px;
      }

      .h {
        fill: #333;
      }

      .i {
        stroke-miterlimit: 10;
        stroke-width: 0.5px;
      }
    </style>
    <clipPath id="a">
      <circle class="a" cx="26.84" cy="26.84" r="26.84"/>
    </clipPath>
  </defs>
  <title>Centered icons</title>
  <g>
    <circle class="a" cx="26.84" cy="26.84" r="26.84"/>
    <g class="b">
      <g>
        <polygon class="c" points="38 43.49 16.55 43.49 16.55 30.63 38 30.63 38 43.49 38 43.49"/>
        <path class="d" d="M13.68,39.64H41c5.49,0,10,4.88,10,10.67v8.84H41V91.47H13.68V59.16h-10V50.31c0-5.79,4.48-10.67,10-10.67h0Z"/>
        <polygon class="e" points="27.13 43.07 22.62 40.53 22.62 27.95 31.79 27.95 31.79 40.53 27.13 43.07 27.13 43.07"/>
        <g>
          <path class="f" d="M40.37,22.29A1.39,1.39,0,0,1,39.1,23.7H15.54a1.39,1.39,0,0,1-1.27-1.41V19.46a1.27,1.27,0,0,1,1.27-1.27H39.1a1.27,1.27,0,0,1,1.27,1.27v2.83Z"/>
          <polygon class="g" points="27.25 43.07 22.74 40.53 22.74 27.95 31.91 27.95 31.91 40.53 27.25 43.07 27.25 43.07"/>
          <path class="f" d="M22.74,35.3a15.82,15.82,0,0,0,4.51.57,17.5,17.5,0,0,0,4.66-.57V27.95H22.74V35.3Z"/>
          <path class="e" d="M16.67,13.81V30.63a18.28,18.28,0,0,0,10.58,3.53,19.16,19.16,0,0,0,10.86-3.53V13.81H16.67Z"/>
          <path class="c" d="M31.77,4.62a9.44,9.44,0,0,0-4.37-1A10.76,10.76,0,0,0,16.53,14.37v5.37A17.26,17.26,0,0,0,31.77,4.62h0Z"/>
          <path class="c" d="M22.88,4.62a9.62,9.62,0,0,1,4.51-1A10.73,10.73,0,0,1,38.12,14.37v5.37A17.54,17.54,0,0,1,22.88,4.62h0Z"/>
          <path class="a" d="M22.74,27.95a5.75,5.75,0,0,0,4.66,2.26,5.48,5.48,0,0,0,4.51-2.26H22.74Z"/>
          <path class="f" d="M25.84,25.26a2,2,0,0,0,1.55.71,1.74,1.74,0,0,0,1.41-.71h-3Z"/>
          <path class="h" d="M23.16,20.88a0.79,0.79,0,0,1-.85.71,0.71,0.71,0,0,1,0-1.41,0.79,0.79,0,0,1,.85.71h0Z"/>
          <path class="h" d="M33.18,20.88a0.79,0.79,0,0,1-.85.71,0.71,0.71,0,0,1,0-1.41,0.79,0.79,0,0,1,.85.71h0Z"/>
        </g>
        <g>
          <line class="i" x1="24.95" y1="57.66" x2="23.18" y2="40.78"/>
          <line class="i" x1="29.7" y1="57.62" x2="31.44" y2="40.78"/>
        </g>
      </g>
    </g>
  </g>
</svg>
