<?xml version="1.0" encoding="UTF-8" standalone="no"?>
<svg
   xmlns:dc="http://purl.org/dc/elements/1.1/"
   xmlns:cc="http://creativecommons.org/ns#"
   xmlns:rdf="http://www.w3.org/1999/02/22-rdf-syntax-ns#"
   xmlns:svg="http://www.w3.org/2000/svg"
   xmlns="http://www.w3.org/2000/svg"
   viewBox="0 0 865.31812 646.71375"
   height="646.71375"
   width="865.31812"
   xml:space="preserve"
   id="svg2"
   version="1.1"><metadata
     id="metadata8"><rdf:RDF><cc:Work
         rdf:about=""><dc:format>image/svg+xml</dc:format><dc:type
           rdf:resource="http://purl.org/dc/dcmitype/StillImage" /></cc:Work></rdf:RDF></metadata><defs
     id="defs6"><clipPath
       id="clipPath14"
       clipPathUnits="userSpaceOnUse"><path
         id="path12"
         d="M 0,0 H 800 V 600 H 0 Z" /></clipPath><clipPath
       id="clipPath22"
       clipPathUnits="userSpaceOnUse"><path
         id="path20"
         d="M 727.074,551.896 H 68.607 V 58.421 h 658.467 z" /></clipPath><linearGradient
       id="linearGradient40"
       spreadMethod="pad"
       gradientTransform="matrix(-4.58e-5,904.24689,904.24689,4.58e-5,397.84131,-11.259766)"
       gradientUnits="userSpaceOnUse"
       y2="0"
       x2="1"
       y1="0"
       x1="0"><stop
         id="stop28"
         offset="0"
         style="stop-opacity:1;stop-color:#ffffe3" /><stop
         id="stop30"
         offset="0.2766512"
         style="stop-opacity:1;stop-color:#f0ff8b" /><stop
         id="stop32"
         offset="0.320221"
         style="stop-opacity:1;stop-color:#f0ff8b" /><stop
         id="stop34"
         offset="0.73655365"
         style="stop-opacity:1;stop-color:#5dc000" /><stop
         id="stop36"
         offset="0.960678"
         style="stop-opacity:1;stop-color:#5dc000" /><stop
         id="stop38"
         offset="1"
         style="stop-opacity:1;stop-color:#5dc000" /></linearGradient><clipPath
       id="clipPath50"
       clipPathUnits="userSpaceOnUse"><path
         id="path48"
         d="M 0,600 H 800 V 0 H 0 Z" /></clipPath><clipPath
       id="clipPath348"
       clipPathUnits="userSpaceOnUse"><path
         id="path346"
         d="M 0,600 H 800 V 0 H 0 Z" /></clipPath><linearGradient
       id="linearGradient372"
       spreadMethod="pad"
       gradientTransform="matrix(83.468613,-156.34579,156.34579,83.468613,362.70752,287.41406)"
       gradientUnits="userSpaceOnUse"
       y2="0"
       x2="1"
       y1="0"
       x1="0"><stop
         id="stop366"
         offset="0"
         style="stop-opacity:1;stop-color:#ff0000" /><stop
         id="stop368"
         offset="0.73985292"
         style="stop-opacity:1;stop-color:#800000" /><stop
         id="stop370"
         offset="1"
         style="stop-opacity:1;stop-color:#800000" /></linearGradient><clipPath
       id="clipPath382"
       clipPathUnits="userSpaceOnUse"><path
         id="path380"
         d="M 0,600 H 800 V 0 H 0 Z" /></clipPath><clipPath
       id="clipPath394"
       clipPathUnits="userSpaceOnUse"><path
         id="path392"
         d="m 423.688,455.728 c -8.411,-0.714 -15.71,-2.913 -20.082,-6.409 v 0 c -8.819,-13.22 2.624,-43.7 22.384,-67.352 v 0 c 15.29,-18.302 45.886,-38.126 84.096,-54.32 v 0 c 19.711,10.7 22.064,36.579 14.179,55.727 v 0 c -14.167,6.407 -27.957,16.558 -38.823,27.273 v 0 c -0.777,0.766 -9.172,-5.573 -18.023,-11.912 v 0 c -9.531,-6.825 -19.592,-13.65 -21.247,-11.606 v 0 c -3.944,3.754 31.75,31.533 30.427,33.133 v 0 c -8.802,10.644 -14.009,20.916 -13.157,27.737 v 0 c -7.98,4.46 -17.788,6.964 -27.311,7.729 v 0 z" /></clipPath><clipPath
       id="clipPath404"
       clipPathUnits="userSpaceOnUse"><path
         id="path402"
         d="M 532.39314,455.72784 H 395.02929 V 327.3921 h 137.36385 z" /></clipPath><radialGradient
       id="radialGradient410"
       spreadMethod="pad"
       gradientTransform="matrix(-64.056412,0,0,-64.056412,464.77711,391.55997)"
       gradientUnits="userSpaceOnUse"
       r="1"
       cy="0"
       cx="0"
       fy="0"
       fx="0"><stop
         id="stop406"
         offset="0"
         style="stop-opacity:1;stop-color:#ffffff" /><stop
         id="stop408"
         offset="1"
         style="stop-opacity:1;stop-color:#000000" /></radialGradient><clipPath
       id="clipPath420"
       clipPathUnits="userSpaceOnUse"><path
         id="path418"
         d="m 472.625,453.142 c -2.178,-0.429 -3.738,-1.248 -3.738,-1.248 v 0 c 0,0 -1.275,-33.603 57.932,-64.765 v 0 c 4.392,4.88 3.829,10.513 2.328,14.079 v 0 c -12.429,0.657 -18.397,10.512 -12.578,20.837 v 0 c -5.632,3.943 -9.01,3.38 -9.01,3.38 v 0 c 0,0 -11.265,-5.632 -15.206,-2.253 v 0 c -3.943,3.379 3.754,4.881 3.567,12.202 v 0 c -0.189,7.322 -1.996,5.515 -1.996,5.515 v 0 c 0,0 -9.647,-7.157 -17.739,1.478 v 0 c -4.106,4.38 -1.812,9.577 -1.195,10.775 v 0 z" /></clipPath><clipPath
       id="clipPath430"
       clipPathUnits="userSpaceOnUse"><path
         id="path428"
         d="M 531.40118,453.1421 H 467.8015 v -66.26782 h 63.59968 z" /></clipPath><radialGradient
       id="radialGradient436"
       spreadMethod="pad"
       gradientTransform="matrix(-31.93045,0,0,-31.93045,499.7543,420.00819)"
       gradientUnits="userSpaceOnUse"
       r="1"
       cy="0"
       cx="0"
       fy="0"
       fx="0"><stop
         id="stop432"
         offset="0"
         style="stop-opacity:1;stop-color:#ffffff" /><stop
         id="stop434"
         offset="1"
         style="stop-opacity:1;stop-color:#000000" /></radialGradient><clipPath
       id="clipPath446"
       clipPathUnits="userSpaceOnUse"><path
         id="path444"
         d="M 0,600 H 800 V 0 H 0 Z" /></clipPath><clipPath
       id="clipPath462"
       clipPathUnits="userSpaceOnUse"><path
         id="path460"
         d="m 495.826,442.508 c 2.724,-2.955 2.956,-8.776 -0.141,-13.329 v 0 c -2.487,-3.654 1.58,-6.429 5.726,-3.754 v 0 c 4.145,2.675 9.199,3.848 16.379,-1.499 v 0 c 7.407,4.797 12.741,1.716 15.636,-2.221 v 0 2.495 c -0.686,4.51 -3.245,11.831 -11.695,19.153 v 0 c -10.558,9.152 -20.625,8.709 -23.606,8.917 v 0 c 1.643,-2.951 -0.254,-8.667 -2.299,-9.762" /></clipPath><clipPath
       id="clipPath472"
       clipPathUnits="userSpaceOnUse"><path
         id="path470"
         d="m 533.42675,452.73003 h -40.45439 v -31.11571 h 40.45439 z" /></clipPath><radialGradient
       id="radialGradient478"
       spreadMethod="pad"
       gradientTransform="matrix(-17.512268,0,0,-17.512268,514.06291,437.05487)"
       gradientUnits="userSpaceOnUse"
       r="1"
       cy="0"
       cx="0"
       fy="0"
       fx="0"><stop
         id="stop474"
         offset="0"
         style="stop-opacity:1;stop-color:#ffffff" /><stop
         id="stop476"
         offset="1"
         style="stop-opacity:1;stop-color:#000000" /></radialGradient><clipPath
       id="clipPath488"
       clipPathUnits="userSpaceOnUse"><path
         id="path486"
         d="m 514.974,450.198 c 6.79,-2.842 16.3,-10.334 19.21,-19.787 v 0 h 0.399 c 2.795,2.473 4.701,10.604 -2.714,17.343 v 0 c -4.086,3.711 -7.903,4.833 -10.873,4.834 v 0 c -3.687,0 -6.064,-1.729 -6.022,-2.39" /></clipPath><clipPath
       id="clipPath498"
       clipPathUnits="userSpaceOnUse"><path
         id="path496"
         d="m 539.33869,452.84473 h -24.63344 v -22.43421 h 24.63344 z" /></clipPath><radialGradient
       id="radialGradient504"
       spreadMethod="pad"
       gradientTransform="matrix(-11.130844,0,0,-11.130844,525.78922,441.62729)"
       gradientUnits="userSpaceOnUse"
       r="1"
       cy="0"
       cx="0"
       fy="0"
       fx="0"><stop
         id="stop500"
         offset="0"
         style="stop-opacity:1;stop-color:#ffffff" /><stop
         id="stop502"
         offset="1"
         style="stop-opacity:1;stop-color:#000000" /></radialGradient><clipPath
       id="clipPath514"
       clipPathUnits="userSpaceOnUse"><path
         id="path512"
         d="M 0,600 H 800 V 0 H 0 Z" /></clipPath><clipPath
       id="clipPath562"
       clipPathUnits="userSpaceOnUse"><path
         id="path560"
         d="m 418.171,380.589 c -2.459,-0.024 -7.121,-8.038 -1.847,-12.609 v 0 c 4.886,-4.234 12.188,-1.839 13.494,0.437 v 0 1.611 c -1.412,3.644 -9.751,10.561 -11.638,10.561 v 0 z" /></clipPath><clipPath
       id="clipPath572"
       clipPathUnits="userSpaceOnUse"><path
         id="path570"
         d="M 429.81791,380.81745 H 410.8477 V 363.5436 h 18.97021 z" /></clipPath><radialGradient
       id="radialGradient578"
       spreadMethod="pad"
       gradientTransform="matrix(-7.7672272,0,0,-7.7672272,421.76399,373.34747)"
       gradientUnits="userSpaceOnUse"
       r="1"
       cy="0"
       cx="0"
       fy="0"
       fx="0"><stop
         id="stop574"
         offset="0"
         style="stop-opacity:1;stop-color:#ffffff" /><stop
         id="stop576"
         offset="1"
         style="stop-opacity:1;stop-color:#000000" /></radialGradient><clipPath
       id="clipPath588"
       clipPathUnits="userSpaceOnUse"><path
         id="path586"
         d="M 0,600 H 800 V 0 H 0 Z" /></clipPath><clipPath
       id="clipPath620"
       clipPathUnits="userSpaceOnUse"><path
         id="path618"
         d="M 291.214,318.517 H 493.943 V 162.81 H 291.214 Z" /></clipPath><clipPath
       id="clipPath632"
       clipPathUnits="userSpaceOnUse"><path
         id="path630"
         d="M 294.989,386.002 H 402.757 V 287.896 H 294.989 Z" /></clipPath><clipPath
       id="clipPath636"
       clipPathUnits="userSpaceOnUse"><path
         id="path634"
         d="m 370.891,385.88 c -22.248,-14.19 -66.306,-61.971 -75.816,-82.014 v 0 -0.291 c 0.956,-1.208 9.805,-12.109 20.439,-15.565 v 0 c 16.896,21.119 58.998,61.613 87.157,81.472 v 0 c 0,0 -10.594,10.943 -31.126,16.398 v 0 z" /></clipPath><clipPath
       id="clipPath640"
       clipPathUnits="userSpaceOnUse"><path
         id="path638"
         d="m 402.75684,385.8801 h -107.6815 v -97.99382 h 107.6815 z" /></clipPath><linearGradient
       id="linearGradient648"
       spreadMethod="pad"
       gradientTransform="matrix(-107.6815,0,0,-107.6815,402.75684,336.88319)"
       gradientUnits="userSpaceOnUse"
       y2="0"
       x2="1"
       y1="0"
       x1="0"><stop
         id="stop642"
         offset="0"
         style="stop-opacity:1;stop-color:#ffffff" /><stop
         id="stop644"
         offset="0.73985292"
         style="stop-opacity:1;stop-color:#ff0000" /><stop
         id="stop646"
         offset="1"
         style="stop-opacity:1;stop-color:#ff0000" /></linearGradient><clipPath
       id="clipPath672"
       clipPathUnits="userSpaceOnUse"><path
         id="path670"
         d="m 236.446,314.694 h 35.516 V 206.161 h -35.516 z" /></clipPath><clipPath
       id="clipPath676"
       clipPathUnits="userSpaceOnUse"><path
         id="path674"
         d="m 242.597,279.157 v -0.83 c 0.07,-28.528 7.409,-58.037 16.772,-72.142 v 0 h 0.026 l 12.53,28.614 v 0.115 c -16.681,13.906 -23.43,44.672 -24.555,79.753 v 0 c -3.298,-10.693 -4.742,-22.992 -4.773,-35.51" /></clipPath><clipPath
       id="clipPath680"
       clipPathUnits="userSpaceOnUse"><path
         id="path678"
         d="M 271.92529,314.68973 H 236.44638 V 206.18419 h 35.47891 z" /></clipPath><linearGradient
       id="linearGradient688"
       spreadMethod="pad"
       gradientTransform="matrix(-29.365585,0,0,-29.365585,271.92529,260.43681)"
       gradientUnits="userSpaceOnUse"
       y2="0"
       x2="1"
       y1="0"
       x1="0"><stop
         id="stop682"
         offset="0"
         style="stop-opacity:1;stop-color:#ffffff" /><stop
         id="stop684"
         offset="0.73985292"
         style="stop-opacity:1;stop-color:#ff0000" /><stop
         id="stop686"
         offset="1"
         style="stop-opacity:1;stop-color:#ff0000" /></linearGradient><clipPath
       id="clipPath712"
       clipPathUnits="userSpaceOnUse"><path
         id="path710"
         d="m 521.203,381.893 c 2.93,-13.389 -1.296,-41.075 -19.146,-48.072 v 0 -0.086 l 4.563,-1.423 c 18.021,6.947 20.275,34.918 17.27,48.277 v 0 l -2.431,1.304 z" /></clipPath><clipPath
       id="clipPath722"
       clipPathUnits="userSpaceOnUse"><path
         id="path720"
         d="m 527.01258,381.89381 h -24.95605 v -49.73625 h 24.95605 z" /></clipPath><linearGradient
       id="linearGradient728"
       spreadMethod="pad"
       gradientTransform="matrix(-23.06694,0,0,-23.06694,533.47762,357.0258)"
       gradientUnits="userSpaceOnUse"
       y2="0"
       x2="1"
       y1="0"
       x1="0"><stop
         id="stop724"
         offset="0"
         style="stop-opacity:1;stop-color:#ffffff" /><stop
         id="stop726"
         offset="1"
         style="stop-opacity:1;stop-color:#000000" /></linearGradient></defs><g
     clip-path="url(#clipPath14)"
     transform="matrix(1.3333333,0,0,-1.3333333,-100.0072,729.84)"
     id="g10"><g
       id="g16"><g
         clip-path="url(#clipPath22)"
         id="g18"><g
           id="g24"><g
             id="g26"><path
               id="path42"
               style="fill:url(#linearGradient40);stroke:none"
               d="M 727.074,551.896 H 68.607 V 58.421 h 658.467 z" /></g></g></g></g><g
       id="g44"><g
         clip-path="url(#clipPath50)"
         id="g46"><g
           transform="translate(195.2192,47.6035)"
           id="g52"><path
             id="path54"
             style="fill:#000000;fill-opacity:1;fill-rule:nonzero;stroke:none"
             d="m 0,0 c -0.02,0.858 -0.779,1.464 -1.62,1.464 -1.852,0 -2.145,-1.579 -2.145,-2.984 0,-1.305 0.567,-2.652 1.973,-2.652 1.147,0 1.733,0.662 1.89,1.734 h 3.218 c -0.293,-2.708 -2.4,-4.271 -5.091,-4.271 -3.041,0 -5.304,2.089 -5.304,5.189 0,3.219 2.048,5.521 5.304,5.521 2.516,0 4.758,-1.328 4.994,-4.001 z" /></g><g
           transform="translate(203.8267,51.5293)"
           id="g56"><path
             id="path58"
             style="fill:#000000;fill-opacity:1;fill-rule:nonzero;stroke:none"
             d="m 0,0 c -3.126,0 -5.303,-2.313 -5.303,-5.345 0,-3.029 2.177,-5.324 5.303,-5.324 3.127,0 5.326,2.295 5.326,5.324 C 5.326,-2.313 3.127,0 0,0" /></g><g
           transform="translate(186.4829,44.0254)"
           id="g60"><path
             id="path62"
             style="fill:#000000;fill-opacity:1;fill-rule:nonzero;stroke:none"
             d="m 0,0 c -0.86,0 -1.458,-0.636 -1.458,-1.468 0,-0.833 0.598,-1.462 1.458,-1.462 0.859,0 1.461,0.629 1.461,1.462 C 1.461,-0.636 0.859,0 0,0" /></g><g
           transform="translate(209.3838,50.8818)"
           id="g64"><path
             id="path66"
             style="fill:#000000;fill-opacity:1;fill-rule:nonzero;stroke:none"
             d="m 0,0 h 3.139 v -1.352 h 0.037 c 0.591,0.991 1.635,1.637 2.835,1.637 1.235,0 2.338,-0.398 2.87,-1.598 0.781,1.046 1.749,1.598 3.081,1.598 3.139,0 3.48,-2.377 3.48,-4.262 v -5.892 h -3.234 v 5.8 c 0,1.064 -0.512,1.69 -1.349,1.69 -1.388,0 -1.521,-1.062 -1.521,-2.661 V -9.869 H 6.105 v 5.609 c 0,1.159 -0.343,1.881 -1.216,1.881 -1.162,0 -1.654,-0.665 -1.654,-2.681 V -9.869 H 0 Z" /></g><g
           transform="translate(143.6587,41.1162)"
           id="g68"><path
             id="path70"
             style="fill:#000000;fill-opacity:1;fill-rule:nonzero;stroke:none"
             d="m 0,0 h -3.686 l -3.256,9.762 h 3.33 l 1.786,-6.454 h 0.038 l 1.807,6.454 h 3.257 z" /></g><g
           transform="translate(148.6733,45.2139)"
           id="g72"><path
             id="path74"
             style="fill:#000000;fill-opacity:1;fill-rule:nonzero;stroke:none"
             d="m 0,0 c 0.056,-1.335 0.831,-2.219 2.184,-2.219 0.767,0 1.52,0.361 1.818,1.073 H 6.995 C 6.414,-3.403 4.324,-4.383 2.142,-4.383 c -3.177,0 -5.341,1.922 -5.341,5.193 0,2.99 2.392,5.133 5.267,5.133 3.498,0 5.25,-2.631 5.1,-5.943 z" /></g><g
           transform="translate(162.6816,47.3037)"
           id="g76"><path
             id="path78"
             style="fill:#000000;fill-opacity:1;fill-rule:nonzero;stroke:none"
             d="m 0,0 c -0.02,0.827 -0.752,1.412 -1.562,1.412 -1.788,0 -2.068,-1.528 -2.068,-2.881 0,-1.261 0.547,-2.558 1.903,-2.558 1.107,0 1.668,0.64 1.823,1.676 h 3.1 c -0.279,-2.614 -2.314,-4.122 -4.907,-4.122 -2.934,0 -5.113,2.014 -5.113,5.004 0,3.105 1.973,5.323 5.113,5.323 2.424,0 4.589,-1.279 4.815,-3.854 z" /></g><g
           transform="translate(171.9536,48.8076)"
           id="g80"><path
             id="path82"
             style="fill:#000000;fill-opacity:1;fill-rule:nonzero;stroke:none"
             d="m 0,0 h -1.971 v -4.439 c 0,-0.772 0.451,-0.941 1.145,-0.941 0.262,0 0.548,0.039 0.826,0.039 v -2.35 c -0.58,-0.018 -1.161,-0.096 -1.749,-0.096 -2.726,0 -3.422,0.79 -3.422,3.445 V 0 h -1.617 v 2.07 h 1.617 v 2.952 h 3.2 V 2.07 L 0,2.07 Z" /></g><g
           transform="translate(176.3447,51.1572)"
           id="g84"><path
             id="path86"
             style="fill:#000000;fill-opacity:1;fill-rule:nonzero;stroke:none"
             d="m 0,0 c -3.027,0 -5.135,-2.239 -5.135,-5.17 0,-2.935 2.108,-5.156 5.135,-5.156 3.027,0 5.153,2.221 5.153,5.156 C 5.153,-2.239 3.027,0 0,0" /></g><g
           transform="translate(181.2832,50.8779)"
           id="g88"><path
             id="path90"
             style="fill:#000000;fill-opacity:1;fill-rule:nonzero;stroke:none"
             d="m 0,0 h 3.107 v -1.711 h 0.035 c 0.47,1.236 1.558,1.899 2.933,1.899 0.243,0 0.507,-0.024 0.751,-0.074 V -2.801 C 6.414,-2.693 6.038,-2.62 5.603,-2.62 4.024,-2.62 3.197,-3.708 3.197,-4.927 V -9.762 H 0 Z" /></g><g
           transform="translate(111.6025,50.8779)"
           id="g92"><path
             id="path94"
             style="fill:#000000;fill-opacity:1;fill-rule:nonzero;stroke:none"
             d="m 0,0 h 3.106 v -1.711 h 0.037 c 0.468,1.236 1.561,1.899 2.935,1.899 0.244,0 0.509,-0.024 0.749,-0.074 V -2.801 C 6.415,-2.693 6.042,-2.62 5.604,-2.62 4.029,-2.62 3.198,-3.708 3.198,-4.927 V -9.762 H 0 Z" /></g><g
           transform="translate(120.4824,45.2139)"
           id="g96"><path
             id="path98"
             style="fill:#000000;fill-opacity:1;fill-rule:nonzero;stroke:none"
             d="m 0,0 c 0.055,-1.335 0.825,-2.219 2.181,-2.219 0.769,0 1.524,0.361 1.823,1.073 H 6.997 C 6.411,-3.403 4.326,-4.383 2.145,-4.383 c -3.181,0 -5.345,1.922 -5.345,5.193 0,2.99 2.39,5.133 5.27,5.133 3.498,0 5.245,-2.631 5.096,-5.943 z" /></g><g
           transform="translate(130.5654,45.2139)"
           id="g100"><path
             id="path102"
             style="fill:#000000;fill-opacity:1;fill-rule:nonzero;stroke:none"
             d="m 0,0 c 0.055,-1.335 0.826,-2.219 2.182,-2.219 0.769,0 1.522,0.361 1.823,1.073 h 2.991 c -0.582,-2.257 -2.67,-3.237 -4.851,-3.237 -3.179,0 -5.341,1.922 -5.341,5.193 0,2.99 2.384,5.133 5.266,5.133 3.497,0 5.247,-2.631 5.097,-5.943 z" /></g><g
           transform="translate(111.0215,52.2842)"
           id="g104"><path
             id="path106"
             style="fill:#000000;fill-opacity:1;fill-rule:nonzero;stroke:none"
             d="m 0,0 c 0.283,0 0.564,-0.018 0.864,-0.055 v 2.259 c -0.509,0.02 -1.035,0.055 -1.543,0.055 -2.725,0 -3.704,-0.865 -3.704,-3.665 h -1.541 v -2.071 h 1.541 v -7.691 h 3.195 v 7.691 h 1.919 v 2.071 h -1.919 v 0.431 C -1.188,-0.092 -0.735,0 0,0" /></g><g
           transform="translate(101.9448,47.7744)"
           id="g108"><path
             id="path110"
             style="fill:#ffffff;fill-opacity:1;fill-rule:nonzero;stroke:none"
             d="m 0,0 c 0,-3.982 -3.228,-7.212 -7.211,-7.212 -3.983,0 -7.212,3.23 -7.212,7.212 0,3.981 3.229,7.21 7.212,7.21 C -3.228,7.21 0,3.981 0,0" /></g><g
           transform="translate(97.2358,44.4961)"
           id="g112"><path
             id="path114"
             style="fill:#000000;fill-opacity:1;fill-rule:nonzero;stroke:none"
             d="m 0,0 0.019,-0.013 c 0,0 -0.007,0.005 -0.013,0.01 -0.001,0 -0.004,0 -0.006,0.003 m -3.204,1.693 c -0.35,-0.123 -0.816,0.196 -1.023,0.356 -0.177,0.203 -1.242,1.338 -1.365,1.48 -0.266,0.307 -0.063,0.942 0.594,1.161 0.186,0.063 0.471,0.068 0.644,-0.125 0.776,-0.928 1.586,-1.918 1.646,-2.109 0.1,-0.333 -0.084,-0.62 -0.496,-0.763 m 0.682,8.825 c -0.659,0 -1.294,-0.086 -1.9,-0.246 0.249,-0.021 0.412,-0.178 0.497,-0.492 0,0 1.356,-4.485 1.518,-4.989 0.159,-0.506 0.35,-1.059 0.35,-1.059 C -2.164,3.643 -2.262,3.529 -2.336,3.38 -2.476,3.089 -2.552,2.853 -2.585,2.617 c -0.21,0.36 -1.033,1.368 -1.589,2.04 0,0 -0.036,0.446 -0.155,0.873 -0.12,0.425 -0.886,3.309 -0.886,3.309 C -5.351,9.375 -5.294,9.841 -5,10.094 -7.829,9.093 -9.854,6.425 -9.854,3.286 c 0,-2.85 1.674,-5.315 4.108,-6.493 -0.25,0.366 -0.538,0.937 -0.673,1.743 -0.224,1.325 -0.268,2.183 -0.436,2.922 -0.223,0.988 -0.156,1.217 0.184,1.652 0.168,0.215 0.359,0.348 0.537,0.407 0.178,0.047 0.362,-0.059 0.43,-0.135 C -5.276,2.924 -4.458,2.044 -4.358,1.919 -4.16,1.687 -4.133,1.395 -4.28,1.047 -4.338,0.906 -4.498,0.843 -4.623,0.813 -4.906,0.747 -5.227,0.806 -5.337,0.9 c -0.23,0.193 -1.35,1.217 -1.35,1.166 0,-0.269 0.833,-0.928 1.229,-1.305 0.161,-0.157 0.558,-0.201 0.879,-0.126 0.238,0.056 0.4,0.174 0.471,0.343 0.11,0.259 0.135,0.501 0.076,0.717 0.26,-0.15 0.595,-0.278 0.891,-0.176 0.288,0.1 0.462,0.255 0.556,0.422 0.019,-0.192 0.05,-0.407 0.091,-0.663 0.099,-0.646 0.22,-1.007 0.293,-1.222 0.027,-0.08 0.054,-0.163 0.051,-0.189 -0.002,-0.005 -0.005,-0.009 -0.011,-0.014 -0.17,-0.239 -0.422,-0.628 -0.582,-1.111 -0.106,-0.321 -0.186,-0.758 -0.196,-1.169 -0.005,-0.144 0,-0.367 0.042,-0.367 0.044,10e-4 0.038,0.228 0.054,0.367 0.045,0.416 0.112,0.835 0.233,1.137 0.159,0.392 0.37,0.712 0.6,1.035 0.01,0.012 0.015,0.021 0.02,0.026 0.053,0.079 0.024,0.166 -0.034,0.341 -0.072,0.211 -0.188,0.562 -0.288,1.195 -0.143,0.933 -0.198,1.284 0.145,1.993 0.276,0.576 1.01,0.583 1.168,0.517 0.061,-0.033 0.065,-0.384 0.072,-0.697 0.008,-0.349 0.015,-0.782 0.073,-1.309 0.072,-0.665 0.344,-1.184 0.589,-1.486 0.199,-0.24 0.358,-0.347 0.397,-0.31 0.037,0.036 -0.136,0.167 -0.313,0.443 -0.196,0.304 -0.421,0.763 -0.488,1.373 -0.058,0.517 -0.065,0.948 -0.071,1.294 -0.012,0.526 -0.016,0.789 -0.187,0.86 -0.085,0.037 -0.264,0.057 -0.47,0.03 l 1.353,4.533 c 0.236,0.817 0.485,1.151 1.007,1.098 0.005,0 0.01,-0.004 0.017,-0.005 -1.041,0.558 -2.233,0.877 -3.502,0.877" /></g><g
           transform="translate(98.6089,53.9072)"
           id="g116"><path
             id="path118"
             style="fill:#000000;fill-opacity:1;fill-rule:nonzero;stroke:none"
             d="m 0,0 c 0.174,-0.181 0.245,-0.433 0.171,-0.7 l -1.215,-5.404 c -0.074,-0.419 -0.197,-1.288 -0.086,-1.881 0.149,-0.809 0.468,-1.9 0.235,-3.106 -0.125,-0.64 -0.318,-1.336 -0.641,-1.878 2.889,0.969 4.97,3.667 4.97,6.844 C 3.434,-3.544 2.063,-1.279 0,0" /></g><path
           id="path120"
           style="fill:#000000;fill-opacity:1;fill-rule:nonzero;stroke:none"
           d="m 239.262,50.651 h 2.498 v -9.587 h -2.498 z" /><g
           transform="translate(243.397,48.0332)"
           id="g122"><path
             id="path124"
             style="fill:#000000;fill-opacity:1;fill-rule:nonzero;stroke:none"
             d="m 0,0 h 2.215 v -0.953 h 0.027 c 0.416,0.699 1.155,1.155 2.001,1.155 0.873,0 1.652,-0.282 2.028,-1.128 0.55,0.738 1.235,1.128 2.175,1.128 2.216,0 2.457,-1.679 2.457,-3.008 V -6.969 H 8.621 v 4.096 c 0,0.752 -0.363,1.194 -0.954,1.194 -0.98,0 -1.074,-0.751 -1.074,-1.879 V -6.969 H 4.31 v 3.961 c 0,0.82 -0.242,1.329 -0.859,1.329 -0.819,0 -1.169,-0.469 -1.169,-1.892 v -3.398 l -2.282,0 z" /></g><g
           transform="translate(258.687,42.2734)"
           id="g126"><path
             id="path128"
             style="fill:#000000;fill-opacity:1;fill-rule:nonzero;stroke:none"
             d="M 0,0 C 1.088,0 1.451,0.617 1.396,2.055 1.075,1.853 0.483,1.813 -0.013,1.678 -0.524,1.557 -0.954,1.343 -0.954,0.792 -0.954,0.228 -0.51,0 0,0 m -2.954,3.611 c 0.04,0.913 0.47,1.505 1.087,1.868 0.618,0.348 1.424,0.483 2.216,0.483 1.652,0 3.25,-0.362 3.25,-2.337 V 0.577 c 0,-0.591 0,-1.236 0.269,-1.786 H 1.571 c -0.08,0.214 -0.107,0.43 -0.134,0.658 -0.591,-0.618 -1.463,-0.859 -2.296,-0.859 -1.329,0 -2.377,0.671 -2.377,2.107 0,2.271 2.47,2.095 4.055,2.417 0.389,0.081 0.605,0.216 0.605,0.646 0,0.523 -0.632,0.724 -1.102,0.724 -0.631,0 -1.033,-0.281 -1.141,-0.873 z" /></g><g
           transform="translate(266.9966,46.4893)"
           id="g130"><path
             id="path132"
             style="fill:#000000;fill-opacity:1;fill-rule:nonzero;stroke:none"
             d="m 0,0 c -1.007,0 -1.33,-0.886 -1.33,-1.745 0,-0.819 0.376,-1.639 1.316,-1.639 0.967,0 1.384,0.751 1.384,1.625 C 1.37,-0.872 1.02,0 0,0 m 3.532,-4.579 c 0,-1.142 -0.215,-3.29 -3.478,-3.29 -1.625,0 -3.156,0.362 -3.425,2.229 h 2.283 c 0.054,-0.308 0.174,-0.497 0.389,-0.604 0.202,-0.108 0.484,-0.148 0.833,-0.148 1.088,0 1.196,0.766 1.196,1.625 v 0.658 H 1.303 c -0.417,-0.644 -1.115,-1.02 -1.854,-1.02 -2.108,0 -3.061,1.503 -3.061,3.464 0,1.853 1.088,3.411 3.061,3.411 0.833,0 1.464,-0.362 1.867,-1.075 h 0.027 v 0.873 h 2.189 z" /></g><g
           transform="translate(276.7695,45.2676)"
           id="g134"><path
             id="path136"
             style="fill:#000000;fill-opacity:1;fill-rule:nonzero;stroke:none"
             d="M 0,0 C -0.041,0.779 -0.591,1.423 -1.357,1.423 -2.162,1.423 -2.7,0.846 -2.833,0 Z m -2.833,-1.275 c 0.04,-0.954 0.59,-1.585 1.557,-1.585 0.55,0 1.088,0.255 1.303,0.765 h 2.135 c -0.416,-1.612 -1.907,-2.309 -3.465,-2.309 -2.269,0 -3.813,1.369 -3.813,3.706 0,2.135 1.705,3.666 3.759,3.666 2.498,0 3.747,-1.881 3.639,-4.243 z" /></g><g
           transform="translate(281.9634,43.3604)"
           id="g138"><path
             id="path140"
             style="fill:#000000;fill-opacity:1;fill-rule:nonzero;stroke:none"
             d="m 0,0 c 0,-0.349 0.147,-0.604 0.376,-0.778 0.215,-0.162 0.523,-0.243 0.846,-0.243 0.443,0 1.074,0.188 1.074,0.74 0,0.537 -0.712,0.643 -1.115,0.737 -1.436,0.363 -3.236,0.403 -3.236,2.284 0,1.679 1.813,2.135 3.182,2.135 1.531,0 3.13,-0.443 3.21,-2.257 H 2.229 c 0,0.296 -0.107,0.485 -0.295,0.605 -0.188,0.121 -0.444,0.174 -0.726,0.174 -0.375,0 -0.98,-0.04 -0.98,-0.523 0,-0.658 1.531,-0.779 2.578,-1.007 1.41,-0.282 1.773,-1.303 1.773,-1.881 0,-1.866 -1.773,-2.483 -3.344,-2.483 -1.652,0 -3.343,0.551 -3.41,2.497 z" /></g><g
           transform="translate(294.7422,42.2734)"
           id="g142"><path
             id="path144"
             style="fill:#000000;fill-opacity:1;fill-rule:nonzero;stroke:none"
             d="M 0,0 C 1.088,0 1.451,0.617 1.396,2.055 1.075,1.853 0.483,1.813 -0.013,1.678 -0.524,1.557 -0.954,1.343 -0.954,0.792 -0.954,0.228 -0.51,0 0,0 m -2.954,3.611 c 0.04,0.913 0.47,1.505 1.087,1.868 0.618,0.348 1.424,0.483 2.216,0.483 1.652,0 3.25,-0.362 3.25,-2.337 V 0.577 c 0,-0.591 0,-1.236 0.269,-1.786 H 1.571 c -0.08,0.214 -0.107,0.43 -0.134,0.658 -0.591,-0.618 -1.463,-0.859 -2.296,-0.859 -1.329,0 -2.377,0.671 -2.377,2.107 0,2.271 2.47,2.095 4.055,2.417 0.389,0.081 0.605,0.216 0.605,0.646 0,0.523 -0.632,0.724 -1.102,0.724 -0.631,0 -1.033,-0.281 -1.141,-0.873 z" /></g><g
           transform="translate(299.9229,48.0332)"
           id="g146"><path
             id="path148"
             style="fill:#000000;fill-opacity:1;fill-rule:nonzero;stroke:none"
             d="m 0,0 h 2.215 v -1.222 h 0.027 c 0.336,0.886 1.115,1.357 2.095,1.357 0.175,0 0.363,-0.014 0.538,-0.054 V -2 c -0.296,0.08 -0.564,0.134 -0.873,0.134 -1.128,0 -1.719,-0.78 -1.719,-1.652 v -3.451 l -2.283,0 z" /></g><g
           transform="translate(310.0991,45.2676)"
           id="g150"><path
             id="path152"
             style="fill:#000000;fill-opacity:1;fill-rule:nonzero;stroke:none"
             d="M 0,0 C -0.041,0.779 -0.591,1.423 -1.357,1.423 -2.162,1.423 -2.7,0.846 -2.833,0 Z m -2.833,-1.275 c 0.04,-0.954 0.59,-1.585 1.557,-1.585 0.55,0 1.088,0.255 1.303,0.765 h 2.135 c -0.416,-1.612 -1.907,-2.309 -3.465,-2.309 -2.269,0 -3.814,1.369 -3.814,3.706 0,2.135 1.706,3.666 3.76,3.666 2.498,0 3.747,-1.881 3.639,-4.243 z" /></g><g
           transform="translate(319.9507,44.6221)"
           id="g154"><path
             id="path156"
             style="fill:#000000;fill-opacity:1;fill-rule:nonzero;stroke:none"
             d="m 0,0 c 0,-1.222 0.349,-2.013 1.383,-2.013 1.02,0 1.37,1.06 1.37,2.013 0,0.887 -0.35,1.867 -1.357,1.867 C 0.778,1.867 0,1.438 0,0 m -2.202,3.411 h 2.175 V 2.605 H 0 c 0.443,0.659 1.114,1.008 1.92,1.008 2.189,0 3.115,-1.881 3.115,-3.841 0,-1.812 -0.966,-3.531 -2.94,-3.531 -0.86,0 -1.517,0.321 -1.988,0.953 H 0.081 v -3.088 h -2.283 z" /></g><g
           transform="translate(326.2856,48.0332)"
           id="g158"><path
             id="path160"
             style="fill:#000000;fill-opacity:1;fill-rule:nonzero;stroke:none"
             d="m 0,0 h 2.215 v -1.222 h 0.027 c 0.336,0.886 1.115,1.357 2.095,1.357 0.175,0 0.363,-0.014 0.538,-0.054 V -2 c -0.296,0.08 -0.564,0.134 -0.873,0.134 -1.128,0 -1.719,-0.78 -1.719,-1.652 v -3.451 l -2.283,0 z" /></g><g
           transform="translate(335.0112,42.6094)"
           id="g162"><path
             id="path164"
             style="fill:#000000;fill-opacity:1;fill-rule:nonzero;stroke:none"
             d="M 0,0 C 1.061,0 1.397,1.047 1.397,1.933 1.397,2.819 1.061,3.88 0,3.88 -1.061,3.88 -1.383,2.819 -1.383,1.933 -1.383,1.047 -1.061,0 0,0 m 0,5.626 c 2.162,0 3.68,-1.599 3.68,-3.693 0,-2.095 -1.518,-3.679 -3.68,-3.679 -2.162,0 -3.666,1.584 -3.666,3.679 0,2.094 1.504,3.693 3.666,3.693" /></g><g
           transform="translate(342.0854,44.6221)"
           id="g166"><path
             id="path168"
             style="fill:#000000;fill-opacity:1;fill-rule:nonzero;stroke:none"
             d="m 0,0 c 0,-1.222 0.349,-2.013 1.383,-2.013 1.02,0 1.37,1.06 1.37,2.013 0,0.887 -0.35,1.867 -1.357,1.867 C 0.778,1.867 0,1.438 0,0 m -2.202,3.411 h 2.175 V 2.605 H 0 c 0.443,0.659 1.114,1.008 1.92,1.008 2.189,0 3.115,-1.881 3.115,-3.841 0,-1.812 -0.966,-3.531 -2.94,-3.531 -0.86,0 -1.518,0.321 -1.988,0.953 H 0.08 v -3.088 h -2.282 z" /></g><g
           transform="translate(353.1201,45.2676)"
           id="g170"><path
             id="path172"
             style="fill:#000000;fill-opacity:1;fill-rule:nonzero;stroke:none"
             d="M 0,0 C -0.041,0.779 -0.591,1.423 -1.356,1.423 -2.162,1.423 -2.7,0.846 -2.833,0 Z m -2.833,-1.275 c 0.04,-0.954 0.59,-1.585 1.557,-1.585 0.55,0 1.088,0.255 1.302,0.765 h 2.136 c -0.416,-1.612 -1.907,-2.309 -3.465,-2.309 -2.269,0 -3.814,1.369 -3.814,3.706 0,2.135 1.706,3.666 3.761,3.666 2.497,0 3.746,-1.881 3.638,-4.243 z" /></g><g
           transform="translate(356.6216,48.0332)"
           id="g174"><path
             id="path176"
             style="fill:#000000;fill-opacity:1;fill-rule:nonzero;stroke:none"
             d="m 0,0 h 2.216 v -1.222 h 0.026 c 0.336,0.886 1.115,1.357 2.095,1.357 0.175,0 0.363,-0.014 0.538,-0.054 V -2 c -0.296,0.08 -0.564,0.134 -0.873,0.134 -1.128,0 -1.719,-0.78 -1.719,-1.652 v -3.451 l -2.283,0 z" /></g><g
           transform="translate(366.4629,46.5566)"
           id="g178"><path
             id="path180"
             style="fill:#000000;fill-opacity:1;fill-rule:nonzero;stroke:none"
             d="m 0,0 h -1.41 v -3.17 c 0,-0.55 0.322,-0.671 0.819,-0.671 0.188,0 0.389,0.028 0.591,0.028 v -1.679 c -0.417,-0.014 -0.833,-0.068 -1.249,-0.068 -1.947,0 -2.444,0.564 -2.444,2.458 V 0 h -1.155 v 1.477 h 1.155 V 3.585 H -1.41 V 1.477 H 0 Z" /></g><g
           transform="translate(371.2813,40.4473)"
           id="g182"><path
             id="path184"
             style="fill:#000000;fill-opacity:1;fill-rule:nonzero;stroke:none"
             d="m 0,0 c -0.55,-1.531 -1.369,-1.719 -2.914,-1.719 h -1.074 v 1.853 h 0.792 c 0.524,0 0.914,0.296 0.914,0.779 0,0.376 -0.444,1.449 -0.578,1.825 l -1.799,4.848 h 2.417 l 1.316,-4.538 h 0.027 l 1.316,4.538 h 2.336 z" /></g><g
           transform="translate(382.248,42.6094)"
           id="g186"><path
             id="path188"
             style="fill:#000000;fill-opacity:1;fill-rule:nonzero;stroke:none"
             d="M 0,0 C 1.061,0 1.397,1.047 1.397,1.933 1.397,2.819 1.061,3.88 0,3.88 -1.061,3.88 -1.383,2.819 -1.383,1.933 -1.383,1.047 -1.061,0 0,0 m 0,5.626 c 2.162,0 3.679,-1.599 3.679,-3.693 0,-2.095 -1.517,-3.679 -3.679,-3.679 -2.162,0 -3.666,1.584 -3.666,3.679 0,2.094 1.504,3.693 3.666,3.693" /></g><g
           transform="translate(387.6167,46.5566)"
           id="g190"><path
             id="path192"
             style="fill:#000000;fill-opacity:1;fill-rule:nonzero;stroke:none"
             d="M 0,0 H -1.101 V 1.477 H 0 c 0,2.001 0.698,2.618 2.645,2.618 0.363,0 0.739,-0.027 1.101,-0.04 V 2.443 C 3.531,2.471 3.33,2.484 3.128,2.484 2.605,2.484 2.283,2.417 2.283,1.786 V 1.477 H 3.652 V 0 H 2.283 V -5.492 H 0 Z" /></g><g
           transform="translate(400.5176,46.5566)"
           id="g194"><path
             id="path196"
             style="fill:#000000;fill-opacity:1;fill-rule:nonzero;stroke:none"
             d="m 0,0 h -1.41 v -3.17 c 0,-0.55 0.323,-0.671 0.819,-0.671 0.188,0 0.39,0.028 0.591,0.028 v -1.679 c -0.416,-0.014 -0.833,-0.068 -1.249,-0.068 -1.947,0 -2.443,0.564 -2.443,2.458 V 0 h -1.155 v 1.477 h 1.155 V 3.585 H -1.41 V 1.477 H 0 Z" /></g><g
           transform="translate(401.5371,50.6514)"
           id="g198"><path
             id="path200"
             style="fill:#000000;fill-opacity:1;fill-rule:nonzero;stroke:none"
             d="m 0,0 h 2.282 v -3.571 h 0.027 c 0.349,0.712 1.289,1.155 2.122,1.155 2.323,0 2.51,-1.692 2.51,-2.7 V -9.587 H 4.658 v 3.37 c 0,0.953 0.109,1.92 -1.14,1.92 -0.86,0 -1.236,-0.724 -1.236,-1.49 v -3.8 H 0 Z" /></g><g
           transform="translate(414.7744,45.2676)"
           id="g202"><path
             id="path204"
             style="fill:#000000;fill-opacity:1;fill-rule:nonzero;stroke:none"
             d="M 0,0 C -0.04,0.779 -0.592,1.423 -1.357,1.423 -2.163,1.423 -2.7,0.846 -2.834,0 Z m -2.834,-1.275 c 0.04,-0.954 0.591,-1.585 1.558,-1.585 0.55,0 1.088,0.255 1.302,0.765 h 2.135 c -0.416,-1.612 -1.906,-2.309 -3.465,-2.309 -2.269,0 -3.812,1.369 -3.812,3.706 0,2.135 1.705,3.666 3.759,3.666 2.498,0 3.747,-1.881 3.638,-4.243 z" /></g><g
           transform="translate(424.3711,44.6221)"
           id="g206"><path
             id="path208"
             style="fill:#000000;fill-opacity:1;fill-rule:nonzero;stroke:none"
             d="m 0,0 c 0,-0.953 0.349,-2.013 1.396,-2.013 1.114,0 1.356,1.06 1.356,1.947 0,1.006 -0.363,1.933 -1.356,1.933 C 0.349,1.867 0,0.887 0,0 M 4.953,-3.558 H 2.779 v 0.806 H 2.752 C 2.309,-3.41 1.637,-3.759 0.831,-3.759 c -2.188,0 -3.114,1.88 -3.114,3.84 0,1.814 0.967,3.532 2.939,3.532 0.86,0 1.519,-0.322 1.989,-0.954 h 0.027 v 3.37 h 2.281 z" /></g><g
           transform="translate(435.6602,45.2676)"
           id="g210"><path
             id="path212"
             style="fill:#000000;fill-opacity:1;fill-rule:nonzero;stroke:none"
             d="M 0,0 C -0.04,0.779 -0.592,1.423 -1.357,1.423 -2.162,1.423 -2.699,0.846 -2.832,0 Z m -2.832,-1.275 c 0.039,-0.954 0.589,-1.585 1.557,-1.585 0.55,0 1.087,0.255 1.302,0.765 h 2.135 c -0.416,-1.612 -1.907,-2.309 -3.465,-2.309 -2.268,0 -3.812,1.369 -3.812,3.706 0,2.135 1.705,3.666 3.758,3.666 2.498,0 3.748,-1.881 3.64,-4.243 z" /></g><g
           transform="translate(440.8545,43.3604)"
           id="g214"><path
             id="path216"
             style="fill:#000000;fill-opacity:1;fill-rule:nonzero;stroke:none"
             d="m 0,0 c 0,-0.349 0.147,-0.604 0.376,-0.778 0.215,-0.162 0.523,-0.243 0.846,-0.243 0.443,0 1.074,0.188 1.074,0.74 0,0.537 -0.713,0.643 -1.114,0.737 -1.438,0.363 -3.238,0.403 -3.238,2.284 0,1.679 1.814,2.135 3.184,2.135 1.53,0 3.129,-0.443 3.209,-2.257 H 2.229 c 0,0.296 -0.107,0.485 -0.294,0.605 -0.19,0.121 -0.446,0.174 -0.727,0.174 -0.375,0 -0.979,-0.04 -0.979,-0.523 0,-0.658 1.53,-0.779 2.578,-1.007 1.409,-0.282 1.772,-1.303 1.772,-1.881 0,-1.866 -1.772,-2.483 -3.344,-2.483 -1.652,0 -3.343,0.551 -3.41,2.497 z" /></g><path
           id="path218"
           style="fill:#000000;fill-opacity:1;fill-rule:nonzero;stroke:none"
           d="m 446.626,48.033 h 2.284 v -6.969 h -2.284 z m 2.284,0.873 h -2.284 v 1.745 h 2.284 z" /><g
           transform="translate(453.7275,46.4893)"
           id="g220"><path
             id="path222"
             style="fill:#000000;fill-opacity:1;fill-rule:nonzero;stroke:none"
             d="m 0,0 c -1.007,0 -1.329,-0.886 -1.329,-1.745 0,-0.819 0.375,-1.639 1.315,-1.639 0.968,0 1.384,0.751 1.384,1.625 C 1.37,-0.872 1.021,0 0,0 m 3.532,-4.579 c 0,-1.142 -0.215,-3.29 -3.478,-3.29 -1.625,0 -3.155,0.362 -3.424,2.229 h 2.283 c 0.053,-0.308 0.174,-0.497 0.389,-0.604 0.202,-0.108 0.484,-0.148 0.833,-0.148 1.088,0 1.195,0.766 1.195,1.625 v 0.658 H 1.304 c -0.417,-0.644 -1.116,-1.02 -1.854,-1.02 -2.109,0 -3.062,1.503 -3.062,3.464 0,1.853 1.088,3.411 3.062,3.411 0.833,0 1.463,-0.362 1.867,-1.075 h 0.026 v 0.873 h 2.189 z" /></g><g
           transform="translate(458.7207,48.0332)"
           id="g224"><path
             id="path226"
             style="fill:#000000;fill-opacity:1;fill-rule:nonzero;stroke:none"
             d="m 0,0 h 2.215 v -0.953 h 0.027 c 0.417,0.712 1.357,1.155 2.19,1.155 2.322,0 2.511,-1.692 2.511,-2.7 V -6.969 H 4.659 v 3.37 c 0,0.953 0.108,1.92 -1.14,1.92 -0.86,0 -1.238,-0.724 -1.238,-1.49 v -3.8 H 0 Z" /></g><g
           transform="translate(471.958,45.2676)"
           id="g228"><path
             id="path230"
             style="fill:#000000;fill-opacity:1;fill-rule:nonzero;stroke:none"
             d="M 0,0 C -0.04,0.779 -0.591,1.423 -1.356,1.423 -2.162,1.423 -2.7,0.846 -2.834,0 Z m -2.834,-1.275 c 0.04,-0.954 0.591,-1.585 1.558,-1.585 0.55,0 1.088,0.255 1.302,0.765 h 2.135 c -0.416,-1.612 -1.906,-2.309 -3.464,-2.309 -2.27,0 -3.813,1.369 -3.813,3.706 0,2.135 1.705,3.666 3.76,3.666 2.498,0 3.746,-1.881 3.638,-4.243 z" /></g><g
           transform="translate(475.459,48.0332)"
           id="g232"><path
             id="path234"
             style="fill:#000000;fill-opacity:1;fill-rule:nonzero;stroke:none"
             d="m 0,0 h 2.217 v -1.222 h 0.026 c 0.335,0.886 1.114,1.357 2.095,1.357 0.174,0 0.363,-0.014 0.537,-0.054 V -2 c -0.296,0.08 -0.564,0.134 -0.872,0.134 -1.13,0 -1.719,-0.78 -1.719,-1.652 v -3.451 l -2.284,0 z" /></g><path
           id="path236"
           style="fill:#000000;fill-opacity:1;fill-rule:nonzero;stroke:none"
           d="m 479.969,43.563 h 2.498 v -2.498 h -2.498 z" /><g
           transform="translate(497.7314,47.2275)"
           id="g238"><path
             id="path240"
             style="fill:#000000;fill-opacity:1;fill-rule:nonzero;stroke:none"
             d="m 0,0 c -0.136,0.968 -0.886,1.478 -1.935,1.478 -1.609,0 -2.228,-1.424 -2.228,-2.847 0,-1.424 0.619,-2.847 2.228,-2.847 1.169,0 1.841,0.671 1.935,1.773 h 2.498 c -0.136,-2.471 -1.948,-3.921 -4.38,-3.921 -2.899,0 -4.779,2.216 -4.779,4.995 0,2.78 1.88,4.995 4.779,4.995 2.07,0 4.311,-1.315 4.38,-3.626 z" /></g><g
           transform="translate(501.4609,50.6514)"
           id="g242"><path
             id="path244"
             style="fill:#000000;fill-opacity:1;fill-rule:nonzero;stroke:none"
             d="M 0,0 H 2.283 V -3.571 H 2.31 c 0.348,0.712 1.288,1.155 2.12,1.155 2.324,0 2.511,-1.692 2.511,-2.7 V -9.587 H 4.66 v 3.37 c 0,0.953 0.108,1.92 -1.142,1.92 -0.86,0 -1.235,-0.724 -1.235,-1.49 v -3.8 H 0 Z" /></g><g
           transform="translate(514.6973,45.2676)"
           id="g246"><path
             id="path248"
             style="fill:#000000;fill-opacity:1;fill-rule:nonzero;stroke:none"
             d="M 0,0 C -0.039,0.779 -0.591,1.423 -1.356,1.423 -2.162,1.423 -2.698,0.846 -2.834,0 Z m -2.834,-1.275 c 0.04,-0.954 0.592,-1.585 1.559,-1.585 0.55,0 1.086,0.255 1.302,0.765 h 2.135 c -0.416,-1.612 -1.906,-2.309 -3.465,-2.309 -2.267,0 -3.812,1.369 -3.812,3.706 0,2.135 1.705,3.666 3.759,3.666 2.498,0 3.745,-1.881 3.638,-4.243 z" /></g><g
           transform="translate(522.6563,45.4824)"
           id="g250"><path
             id="path252"
             style="fill:#000000;fill-opacity:1;fill-rule:nonzero;stroke:none"
             d="m 0,0 c -0.014,0.591 -0.535,1.007 -1.113,1.007 -1.276,0 -1.479,-1.088 -1.479,-2.055 0,-0.899 0.391,-1.825 1.358,-1.825 0.793,0 1.194,0.456 1.301,1.194 h 2.216 c -0.2,-1.866 -1.651,-2.94 -3.504,-2.94 -2.093,0 -3.652,1.436 -3.652,3.571 0,2.216 1.408,3.801 3.652,3.801 C 0.512,2.753 2.057,1.84 2.217,0 Z" /></g><g
           transform="translate(526.0791,50.6514)"
           id="g254"><path
             id="path256"
             style="fill:#000000;fill-opacity:1;fill-rule:nonzero;stroke:none"
             d="m 0,0 h 2.283 v -4.94 l 2.081,2.322 H 7.009 L 4.458,-5.25 7.333,-9.587 H 4.578 L 2.872,-6.78 2.283,-7.358 V -9.587 H 0 Z" /></g><path
           id="path258"
           style="fill:#000000;fill-opacity:1;fill-rule:nonzero;stroke:none"
           d="m 538.348,50.651 h 2.281 v -9.587 h -2.281 z" /><path
           id="path260"
           style="fill:#000000;fill-opacity:1;fill-rule:nonzero;stroke:none"
           d="m 542.322,48.033 h 2.281 v -6.969 h -2.281 z m 2.282,0.873 h -2.281 v 1.745 h 2.281 z" /><g
           transform="translate(550.7529,45.4824)"
           id="g262"><path
             id="path264"
             style="fill:#000000;fill-opacity:1;fill-rule:nonzero;stroke:none"
             d="m 0,0 c -0.013,0.591 -0.538,1.007 -1.114,1.007 -1.277,0 -1.477,-1.088 -1.477,-2.055 0,-0.899 0.388,-1.825 1.355,-1.825 0.792,0 1.196,0.456 1.303,1.194 h 2.217 c -0.203,-1.866 -1.652,-2.94 -3.508,-2.94 -2.093,0 -3.651,1.436 -3.651,3.571 0,2.216 1.411,3.801 3.651,3.801 C 0.511,2.753 2.054,1.84 2.215,0 Z" /></g><g
           transform="translate(558.9551,45.2676)"
           id="g266"><path
             id="path268"
             style="fill:#000000;fill-opacity:1;fill-rule:nonzero;stroke:none"
             d="M 0,0 C -0.041,0.779 -0.592,1.423 -1.357,1.423 -2.163,1.423 -2.699,0.846 -2.835,0 Z m -2.835,-1.275 c 0.04,-0.954 0.591,-1.585 1.558,-1.585 0.551,0 1.088,0.255 1.303,0.765 H 2.16 c -0.414,-1.612 -1.906,-2.309 -3.464,-2.309 -2.268,0 -3.813,1.369 -3.813,3.706 0,2.135 1.706,3.666 3.76,3.666 2.498,0 3.746,-1.881 3.638,-4.243 z" /></g><g
           transform="translate(562.375,48.0332)"
           id="g270"><path
             id="path272"
             style="fill:#000000;fill-opacity:1;fill-rule:nonzero;stroke:none"
             d="m 0,0 h 2.217 v -0.953 h 0.027 c 0.414,0.712 1.356,1.155 2.188,1.155 2.324,0 2.511,-1.692 2.511,-2.7 V -6.969 H 4.66 v 3.37 c 0,0.953 0.108,1.92 -1.142,1.92 -0.86,0 -1.235,-0.724 -1.235,-1.49 v -3.8 H 0 Z" /></g><g
           transform="translate(572.6035,43.3604)"
           id="g274"><path
             id="path276"
             style="fill:#000000;fill-opacity:1;fill-rule:nonzero;stroke:none"
             d="M 0,0 C 0,-0.349 0.148,-0.604 0.377,-0.778 0.592,-0.94 0.9,-1.021 1.223,-1.021 c 0.443,0 1.074,0.188 1.074,0.74 0,0.537 -0.711,0.643 -1.113,0.737 -1.438,0.363 -3.237,0.403 -3.237,2.284 0,1.679 1.813,2.135 3.182,2.135 1.529,0 3.129,-0.443 3.209,-2.257 H 2.23 C 2.23,2.914 2.123,3.103 1.934,3.223 1.746,3.344 1.492,3.397 1.211,3.397 0.834,3.397 0.229,3.357 0.229,2.874 0.229,2.216 1.76,2.095 2.807,1.867 4.217,1.585 4.58,0.564 4.58,-0.014 c 0,-1.866 -1.773,-2.483 -3.344,-2.483 -1.65,0 -3.343,0.551 -3.41,2.497 z" /></g><g
           transform="translate(583.0762,45.2676)"
           id="g278"><path
             id="path280"
             style="fill:#000000;fill-opacity:1;fill-rule:nonzero;stroke:none"
             d="M 0,0 C -0.041,0.779 -0.59,1.423 -1.355,1.423 -2.162,1.423 -2.699,0.846 -2.834,0 Z m -2.834,-1.275 c 0.041,-0.954 0.592,-1.585 1.559,-1.585 0.548,0 1.087,0.255 1.302,0.765 h 2.135 c -0.416,-1.612 -1.908,-2.309 -3.465,-2.309 -2.269,0 -3.814,1.369 -3.814,3.706 0,2.135 1.705,3.666 3.762,3.666 2.498,0 3.746,-1.881 3.638,-4.243 z" /></g><g
           transform="translate(591.2227,46.5566)"
           id="g282"><path
             id="path284"
             style="fill:#000000;fill-opacity:1;fill-rule:nonzero;stroke:none"
             d="M 0,0 H -1.102 V 1.477 H 0 c 0,2.001 0.697,2.618 2.645,2.618 0.363,0 0.738,-0.027 1.103,-0.04 V 2.443 C 3.531,2.471 3.33,2.484 3.129,2.484 2.604,2.484 2.283,2.417 2.283,1.786 V 1.477 H 3.652 V 0 H 2.283 V -5.492 H 0 Z" /></g><g
           transform="translate(599.0234,42.6094)"
           id="g286"><path
             id="path288"
             style="fill:#000000;fill-opacity:1;fill-rule:nonzero;stroke:none"
             d="M 0,0 C 1.061,0 1.396,1.047 1.396,1.933 1.396,2.819 1.061,3.88 0,3.88 -1.063,3.88 -1.383,2.819 -1.383,1.933 -1.383,1.047 -1.063,0 0,0 m 0,5.626 c 2.162,0 3.68,-1.599 3.68,-3.693 0,-2.095 -1.518,-3.679 -3.68,-3.679 -2.162,0 -3.666,1.584 -3.666,3.679 0,2.094 1.504,3.693 3.666,3.693" /></g><g
           transform="translate(603.9746,48.0332)"
           id="g290"><path
             id="path292"
             style="fill:#000000;fill-opacity:1;fill-rule:nonzero;stroke:none"
             d="m 0,0 h 2.215 v -1.222 h 0.027 c 0.338,0.886 1.115,1.357 2.096,1.357 0.174,0 0.361,-0.014 0.537,-0.054 V -2 c -0.295,0.08 -0.564,0.134 -0.873,0.134 -1.129,0 -1.719,-0.78 -1.719,-1.652 v -3.451 l -2.283,0 z" /></g><g
           transform="translate(616.043,44.6221)"
           id="g294"><path
             id="path296"
             style="fill:#000000;fill-opacity:1;fill-rule:nonzero;stroke:none"
             d="m 0,0 c 0,-1.222 0.35,-2.013 1.383,-2.013 1.019,0 1.371,1.06 1.371,2.013 0,0.887 -0.352,1.867 -1.358,1.867 C 0.779,1.867 0,1.438 0,0 m -2.203,3.411 h 2.178 V 2.605 H 0 c 0.443,0.659 1.115,1.008 1.92,1.008 2.187,0 3.117,-1.881 3.117,-3.841 0,-1.812 -0.969,-3.531 -2.943,-3.531 -0.86,0 -1.518,0.321 -1.987,0.953 H 0.082 v -3.088 h -2.285 z" /></g><g
           transform="translate(627.0781,45.2676)"
           id="g298"><path
             id="path300"
             style="fill:#000000;fill-opacity:1;fill-rule:nonzero;stroke:none"
             d="M 0,0 C -0.041,0.779 -0.59,1.423 -1.355,1.423 -2.16,1.423 -2.699,0.846 -2.832,0 Z m -2.832,-1.275 c 0.039,-0.954 0.59,-1.585 1.557,-1.585 0.55,0 1.087,0.255 1.302,0.765 h 2.135 c -0.416,-1.612 -1.908,-2.309 -3.463,-2.309 -2.271,0 -3.814,1.369 -3.814,3.706 0,2.135 1.705,3.666 3.76,3.666 2.498,0 3.746,-1.881 3.638,-4.243 z" /></g><g
           transform="translate(630.5801,48.0332)"
           id="g302"><path
             id="path304"
             style="fill:#000000;fill-opacity:1;fill-rule:nonzero;stroke:none"
             d="m 0,0 h 2.215 v -1.222 h 0.027 c 0.338,0.886 1.115,1.357 2.096,1.357 0.174,0 0.361,-0.014 0.537,-0.054 V -2 c -0.295,0.08 -0.564,0.134 -0.873,0.134 -1.129,0 -1.719,-0.78 -1.719,-1.652 v -3.451 l -2.283,0 z" /></g><g
           transform="translate(636.2188,48.0332)"
           id="g306"><path
             id="path308"
             style="fill:#000000;fill-opacity:1;fill-rule:nonzero;stroke:none"
             d="m 0,0 h 2.215 v -0.953 h 0.027 c 0.416,0.699 1.154,1.155 2,1.155 0.873,0 1.653,-0.282 2.028,-1.128 0.55,0.738 1.236,1.128 2.175,1.128 2.217,0 2.459,-1.679 2.459,-3.008 V -6.969 H 8.619 v 4.096 c 0,0.752 -0.361,1.194 -0.953,1.194 -0.978,0 -1.072,-0.751 -1.072,-1.879 V -6.969 H 4.311 v 3.961 c 0,0.82 -0.243,1.329 -0.862,1.329 -0.818,0 -1.166,-0.469 -1.166,-1.892 v -3.398 l -2.283,0 z" /></g><path
           id="path310"
           style="fill:#000000;fill-opacity:1;fill-rule:nonzero;stroke:none"
           d="m 648.729,48.033 h 2.283 v -6.969 h -2.283 z m 2.283,0.873 h -2.283 v 1.745 h 2.283 z" /><g
           transform="translate(656.8242,46.5566)"
           id="g312"><path
             id="path314"
             style="fill:#000000;fill-opacity:1;fill-rule:nonzero;stroke:none"
             d="m 0,0 h -1.41 v -3.17 c 0,-0.55 0.324,-0.671 0.818,-0.671 0.19,0 0.391,0.028 0.592,0.028 v -1.679 c -0.414,-0.014 -0.832,-0.068 -1.248,-0.068 -1.947,0 -2.443,0.564 -2.443,2.458 V 0 h -1.157 v 1.477 h 1.157 V 3.585 H -1.41 V 1.477 H 0 Z" /></g><g
           transform="translate(662.0469,46.5566)"
           id="g316"><path
             id="path318"
             style="fill:#000000;fill-opacity:1;fill-rule:nonzero;stroke:none"
             d="m 0,0 h -1.412 v -3.17 c 0,-0.55 0.324,-0.671 0.82,-0.671 0.19,0 0.391,0.028 0.592,0.028 v -1.679 c -0.416,-0.014 -0.834,-0.068 -1.248,-0.068 -1.949,0 -2.445,0.564 -2.445,2.458 V 0 H -4.85 v 1.477 h 1.157 v 2.108 h 2.281 V 1.477 l 1.412,0 z" /></g><g
           transform="translate(667.8457,45.2676)"
           id="g320"><path
             id="path322"
             style="fill:#000000;fill-opacity:1;fill-rule:nonzero;stroke:none"
             d="M 0,0 C -0.041,0.779 -0.592,1.423 -1.357,1.423 -2.162,1.423 -2.699,0.846 -2.834,0 Z m -2.834,-1.275 c 0.039,-0.954 0.592,-1.585 1.557,-1.585 0.552,0 1.088,0.255 1.304,0.765 H 2.16 c -0.414,-1.612 -1.906,-2.309 -3.463,-2.309 -2.269,0 -3.812,1.369 -3.812,3.706 0,2.135 1.705,3.666 3.758,3.666 2.498,0 3.746,-1.881 3.638,-4.243 z" /></g><g
           transform="translate(673.2129,44.6221)"
           id="g324"><path
             id="path326"
             style="fill:#000000;fill-opacity:1;fill-rule:nonzero;stroke:none"
             d="m 0,0 c 0,-0.953 0.35,-2.013 1.396,-2.013 1.116,0 1.358,1.06 1.358,1.947 0,1.006 -0.363,1.933 -1.358,1.933 C 0.35,1.867 0,0.887 0,0 M 4.955,-3.558 H 2.781 v 0.806 H 2.754 C 2.311,-3.41 1.639,-3.759 0.832,-3.759 c -2.187,0 -3.113,1.88 -3.113,3.84 0,1.814 0.967,3.532 2.939,3.532 0.86,0 1.518,-0.322 1.987,-0.954 h 0.029 v 3.37 h 2.281 z" /></g><g
           transform="translate(690.8809,41.0645)"
           id="g328"><path
             id="path330"
             style="fill:#000000;fill-opacity:1;fill-rule:nonzero;stroke:none"
             d="m 0,0 h -2.215 v 0.953 h -0.027 c -0.43,-0.711 -1.315,-1.154 -2.121,-1.154 -2.002,0 -2.578,1.154 -2.578,2.98 v 4.19 H -4.66 V 2.928 c 0,-0.927 0.404,-1.249 1.129,-1.249 0.496,0 1.248,0.322 1.248,1.557 v 3.733 l 2.283,0 z" /></g><g
           transform="translate(694.1816,43.3604)"
           id="g332"><path
             id="path334"
             style="fill:#000000;fill-opacity:1;fill-rule:nonzero;stroke:none"
             d="m 0,0 c 0,-0.349 0.146,-0.604 0.375,-0.778 0.215,-0.162 0.523,-0.243 0.846,-0.243 0.443,0 1.074,0.188 1.074,0.74 0,0.537 -0.711,0.643 -1.113,0.737 -1.438,0.363 -3.239,0.403 -3.239,2.284 0,1.679 1.813,2.135 3.184,2.135 1.531,0 3.129,-0.443 3.211,-2.257 H 2.229 c 0,0.296 -0.108,0.485 -0.295,0.605 -0.188,0.121 -0.446,0.174 -0.727,0.174 -0.375,0 -0.978,-0.04 -0.978,-0.523 0,-0.658 1.531,-0.779 2.578,-1.007 1.41,-0.282 1.771,-1.303 1.771,-1.881 0,-1.866 -1.771,-2.483 -3.344,-2.483 -1.652,0 -3.343,0.551 -3.41,2.497 z" /></g><g
           transform="translate(704.6523,45.2676)"
           id="g336"><path
             id="path338"
             style="fill:#000000;fill-opacity:1;fill-rule:nonzero;stroke:none"
             d="M 0,0 C -0.039,0.779 -0.59,1.423 -1.355,1.423 -2.162,1.423 -2.697,0.846 -2.834,0 Z m -2.834,-1.275 c 0.041,-0.954 0.592,-1.585 1.559,-1.585 0.55,0 1.086,0.255 1.302,0.765 h 2.135 c -0.416,-1.612 -1.906,-2.309 -3.465,-2.309 -2.267,0 -3.812,1.369 -3.812,3.706 0,2.135 1.705,3.666 3.76,3.666 2.498,0 3.746,-1.881 3.638,-4.243 z" /></g><path
           id="path340"
           style="fill:#000000;fill-opacity:1;fill-rule:nonzero;stroke:none"
           d="m 708.182,43.563 h 2.498 v -2.498 h -2.498 z" /></g></g><g
       id="g342"><g
         clip-path="url(#clipPath348)"
         id="g344"><g
           transform="translate(179.0508,300.751)"
           id="g350"><path
             id="path352"
             style="fill:#000000;fill-opacity:1;fill-rule:nonzero;stroke:none"
             d="m 0,0 c 8.272,-11.339 18.495,0.145 26.803,6.225 7.352,-6.73 19.742,-6.915 25.95,-6.518 3.351,26.012 13.286,54.065 34.528,81.509 3.003,3.88 6.407,7.758 10.132,11.582 -4.153,5.564 -10.439,15.379 -11.292,24.767 -10.727,0.153 -22.81,2.015 -21.203,16.792 0,0 -3.262,1.984 -0.663,5.505 -1.043,-2.838 3.228,-3.621 3.228,-3.621 -1.606,-14.777 14.418,-11.602 25.144,-11.757 0.925,-10.184 10.156,-18.124 15.286,-21.791 19.385,16.85 44.221,31.543 67.577,38.883 0.396,5.497 2.232,20.591 10.663,29.896 -9.336,7.188 -18.474,16.558 -4.979,26.634 0,0 -1.257,3.646 3.915,4.585 -3.241,-1.45 -0.113,-4.857 -0.113,-4.857 -13.494,-10.077 3.234,-18.249 12.571,-25.438 -7.582,-8.366 -5.821,-20.586 -4.281,-26.675 6.044,0.866 11.844,1.082 17.255,0.541 32.394,26.094 75.373,4.695 75.373,4.695 2.229,3.19 5.609,4.316 10.69,3.753 7.309,9.856 20.52,3.473 22.771,-1.408 3.286,1.929 11.078,-1.126 14.166,-2.345 0.118,0.063 0.299,0.166 0.534,0.291 -23.148,11.564 -27.794,25.955 -27.724,30.934 0.055,3.957 2.812,12.421 6.879,10.339 5.185,-2.656 -0.881,-3.023 -2.06,-14.387 -0.824,-7.948 11.228,-19.158 24.185,-26.252 3.606,1.647 11.596,4.065 19.267,-3.315 6.554,-6.306 5.857,-13.137 2.332,-18.391 5.494,-14.482 16.001,-29.136 25.575,-30.496 13.758,-1.955 15.575,3.852 17.547,-1.921 1.547,-4.53 -9.129,-4.905 -13.839,-3.878 -5.888,1.283 -21.752,9.648 -30.251,34.977 -0.109,-0.136 -0.219,-0.272 -0.332,-0.406 0.436,-3.308 0.775,-5.561 -0.28,-7.814 6.009,-6.181 6.053,-15.91 -2.746,-20.063 1.498,-1.69 2.933,-10.067 -2.511,-17.952 10.747,-22.949 1.097,-48.407 -10.379,-62.794 0.5,-5.305 0.699,-11.197 0.515,-17.511 6.617,-0.424 17.295,0.318 23.809,8.138 8.424,-8.24 18.853,-23.665 26.945,-8.895 0,0 3.811,-2.623 4.794,0.79 -0.208,-5.251 -3.993,-4.517 -3.993,-4.517 -8.094,-14.77 -18.647,-7.03 -27.07,1.211 -7.116,-8.545 -19.453,-12.602 -25.926,-14.223 -3.169,-23.522 -11.735,-50.416 -29.325,-74.781 4.813,-4.583 12.897,-10.609 21.786,-10.169 1.651,-10.599 0.746,-26.908 15.152,-23.255 0,0 1.373,-4.121 4.037,-2.69 -3.124,-3.067 -5.544,-0.114 -5.544,-0.114 -14.407,-3.654 -17.938,8.051 -19.588,18.651 -8.581,-0.424 -18.14,3.569 -24.378,6.806 -17.977,-20.704 -43.397,-38.749 -78.772,-50.083 -3.047,-0.978 -6.061,-1.829 -9.047,-2.585 -0.005,-1.877 0.211,-20.162 10.232,-28.424 -4.86,-9.076 -14.803,-20.803 -2.42,-27.41 0,0 -1.368,-4.004 1.351,-4.657 -3.979,-0.283 -4.026,3.519 -4.026,3.519 -12.384,6.608 -8.237,17.741 -3.375,26.818 -9.116,7.518 -14.519,23.151 -15.832,27.309 -65.807,-9.912 -113.324,30.282 -122.088,41.069 -4.088,5.031 -27.991,47.616 -25.368,101.669 -6.656,1.446 -18.372,4.748 -25.314,11.1 -8.309,-6.081 -18.753,-11.741 -27.025,-0.403 0,0 -3.772,-0.484 -4.048,3.497 C -3.773,-1.914 0,0 0,0" /></g></g></g><g
       id="g354"><g
         id="g356"><g
           id="g362"><g
             id="g364"><path
               id="path374"
               style="fill:url(#linearGradient372);stroke:none"
               d="m 421.675,361.88 c -3.189,-0.148 -6.009,0.563 -8.537,2.843 v 0 C 377.082,337.602 276.953,255.735 266.332,187.951 v 0 c 0,0 79.969,-78.281 180.186,-3.9 v 0 c 54.065,40.126 66.062,88.941 64.935,133.52 v 0 c -19.88,5.467 -60.48,30.271 -81.546,47.653 v 0 c -1.475,-2.405 -5.331,-3.211 -8.232,-3.344" /></g></g></g></g><g
       id="g376"><g
         clip-path="url(#clipPath382)"
         id="g378"><g
           transform="translate(415.5674,382.8691)"
           id="g384"><path
             id="path386"
             style="fill:#ff0000;fill-opacity:1;fill-rule:nonzero;stroke:none"
             d="m 0,0 c -1.197,-0.592 -5.063,-4 -5.627,-7.685 -0.277,-1.824 -0.422,-5.96 1.04,-8.33 -35.83,-26.132 -119.766,-88.445 -149.343,-172.709 -18.21,14.644 -49.38,127.523 23.559,194.724 61.582,56.736 99.12,51.625 101.091,51.625 C -27.778,52.318 -17.266,27.35 0,0" /></g></g></g><g
       id="g388"><g
         clip-path="url(#clipPath394)"
         id="g390"><g
           id="g396"><g
             id="g398"><g
               clip-path="url(#clipPath404)"
               id="g400"><path
                 id="path412"
                 style="fill:url(#radialGradient410);stroke:none"
                 d="m 423.688,455.728 c -8.411,-0.714 -15.71,-2.913 -20.082,-6.409 v 0 c -8.819,-13.22 2.624,-43.7 22.384,-67.352 v 0 c 15.29,-18.302 45.886,-38.126 84.096,-54.32 v 0 c 19.711,10.7 22.064,36.579 14.179,55.727 v 0 c -14.167,6.407 -27.957,16.558 -38.823,27.273 v 0 c -0.777,0.766 -9.172,-5.573 -18.023,-11.912 v 0 c -9.531,-6.825 -19.592,-13.65 -21.247,-11.606 v 0 c -3.944,3.754 31.75,31.533 30.427,33.133 v 0 c -8.802,10.644 -14.009,20.916 -13.157,27.737 v 0 c -7.98,4.46 -17.788,6.964 -27.311,7.729 v 0 z" /></g></g></g></g></g><g
       id="g414"><g
         clip-path="url(#clipPath420)"
         id="g416"><g
           id="g422"><g
             id="g424"><g
               clip-path="url(#clipPath430)"
               id="g426"><path
                 id="path438"
                 style="fill:url(#radialGradient436);stroke:none"
                 d="m 472.625,453.142 c -2.178,-0.429 -3.738,-1.248 -3.738,-1.248 v 0 c 0,0 -1.275,-33.603 57.932,-64.765 v 0 c 4.392,4.88 3.829,10.513 2.328,14.079 v 0 c -12.429,0.657 -18.397,10.512 -12.578,20.837 v 0 c -5.632,3.943 -9.01,3.38 -9.01,3.38 v 0 c 0,0 -11.265,-5.632 -15.206,-2.253 v 0 c -3.943,3.379 3.754,4.881 3.567,12.202 v 0 c -0.189,7.322 -1.996,5.515 -1.996,5.515 v 0 c 0,0 -9.647,-7.157 -17.739,1.478 v 0 c -4.106,4.38 -1.812,9.577 -1.195,10.775 v 0 z" /></g></g></g></g></g><g
       id="g440"><g
         clip-path="url(#clipPath446)"
         id="g442"><g
           transform="translate(518.7109,409.0454)"
           id="g448"><path
             id="path450"
             style="fill:#ffffff;fill-opacity:1;fill-rule:nonzero;stroke:none"
             d="m 0,0 c 3.191,-4.85 9.077,-6.609 13.148,-3.931 4.071,2.679 4.786,8.78 1.594,13.63 -3.19,4.848 -9.076,6.608 -13.146,3.929 C -2.476,10.95 -3.189,4.848 0,0" /></g><g
           transform="translate(485.9414,440.4966)"
           id="g452"><path
             id="path454"
             style="fill:#ffffff;fill-opacity:1;fill-rule:nonzero;stroke:none"
             d="M 0,0 C 5.804,-0.133 10.598,3.708 10.708,8.58 10.82,13.452 6.207,17.509 0.403,17.642 -5.398,17.775 -10.192,13.933 -10.305,9.062 -10.416,4.189 -5.803,0.133 0,0" /></g></g></g><g
       id="g456"><g
         clip-path="url(#clipPath462)"
         id="g458"><g
           id="g464"><g
             id="g466"><g
               clip-path="url(#clipPath472)"
               id="g468"><path
                 id="path480"
                 style="fill:url(#radialGradient478);stroke:none"
                 d="m 495.826,442.508 c 2.724,-2.955 2.956,-8.776 -0.141,-13.329 v 0 c -2.487,-3.654 1.58,-6.429 5.726,-3.754 v 0 c 4.145,2.675 9.199,3.848 16.379,-1.499 v 0 c 7.407,4.797 12.741,1.716 15.636,-2.221 v 0 2.495 c -0.686,4.51 -3.245,11.831 -11.695,19.153 v 0 c -10.558,9.152 -20.625,8.709 -23.606,8.917 v 0 c 1.643,-2.951 -0.254,-8.667 -2.299,-9.762" /></g></g></g></g></g><g
       id="g482"><g
         clip-path="url(#clipPath488)"
         id="g484"><g
           id="g490"><g
             id="g492"><g
               clip-path="url(#clipPath498)"
               id="g494"><path
                 id="path506"
                 style="fill:url(#radialGradient504);stroke:none"
                 d="m 514.974,450.198 c 6.79,-2.842 16.3,-10.334 19.21,-19.787 v 0 h 0.399 c 2.795,2.473 4.701,10.604 -2.714,17.343 v 0 c -4.086,3.711 -7.903,4.833 -10.873,4.834 v 0 c -3.687,0 -6.064,-1.729 -6.022,-2.39" /></g></g></g></g></g><g
       id="g508"><g
         clip-path="url(#clipPath514)"
         id="g510"><g
           transform="translate(413.6953,301.8516)"
           id="g516"><path
             id="path518"
             style="fill:#000000;fill-opacity:1;fill-rule:nonzero;stroke:none"
             d="m 0,0 c 0,-8.681 8.404,-15.719 18.772,-15.719 10.369,0 18.775,7.038 18.775,15.719 0,8.681 -8.406,15.72 -18.775,15.72 C 8.404,15.72 0,8.681 0,0" /></g><g
           transform="translate(335.0005,282.6426)"
           id="g520"><path
             id="path522"
             style="fill:#000000;fill-opacity:1;fill-rule:nonzero;stroke:none"
             d="M 0,0 C -3.371,-15.183 2.428,-29.385 12.954,-31.722 23.48,-34.06 34.746,-23.647 38.119,-8.466 41.49,6.717 35.69,20.919 25.164,23.256 14.637,25.595 3.371,15.182 0,0" /></g><g
           transform="translate(374.0781,236.5732)"
           id="g524"><path
             id="path526"
             style="fill:#000000;fill-opacity:1;fill-rule:nonzero;stroke:none"
             d="m 0,0 c 0,-11.819 11.892,-21.401 26.563,-21.401 14.67,0 26.564,9.582 26.564,21.401 0,11.817 -11.894,21.399 -26.564,21.399 C 11.892,21.399 0,11.817 0,0" /></g><g
           transform="translate(289.0454,217.7998)"
           id="g528"><path
             id="path530"
             style="fill:#000000;fill-opacity:1;fill-rule:nonzero;stroke:none"
             d="m 0,0 c 0,-10.368 10.59,-18.772 23.653,-18.772 13.065,0 23.654,8.404 23.654,18.772 0,10.368 -10.589,18.773 -23.654,18.773 C 10.59,18.773 0,10.368 0,0" /></g><g
           transform="translate(335.9902,185.5771)"
           id="g532"><path
             id="path534"
             style="fill:#000000;fill-opacity:1;fill-rule:nonzero;stroke:none"
             d="m 0,0 c 0,-4.769 8.09,-8.635 18.068,-8.635 9.981,0 18.071,3.866 18.071,8.635 0,4.77 -8.09,8.635 -18.071,8.635 C 8.09,8.635 0,4.77 0,0" /></g><g
           transform="translate(278.5967,191.4854)"
           id="g536"><path
             id="path538"
             style="fill:#000000;fill-opacity:1;fill-rule:nonzero;stroke:none"
             d="m 0,0 c 1.386,3.24 8.692,3.223 16.318,-0.04 7.625,-3.263 12.683,-8.535 11.296,-11.775 -1.387,-3.241 -8.693,-3.224 -16.318,0.04 C 3.67,-8.513 -1.387,-3.24 0,0" /></g><g
           transform="translate(469.4385,280.877)"
           id="g540"><path
             id="path542"
             style="fill:#000000;fill-opacity:1;fill-rule:nonzero;stroke:none"
             d="m 0,0 c 0,-7.052 5.211,-12.767 11.64,-12.767 6.427,0 11.638,5.715 11.638,12.767 0,7.049 -5.211,12.765 -11.638,12.765 C 5.211,12.765 0,7.049 0,0" /></g><g
           transform="translate(373.6812,166.6963)"
           id="g544"><path
             id="path546"
             style="fill:#000000;fill-opacity:1;fill-rule:nonzero;stroke:none"
             d="M 0,0 C 1.404,-4.558 11.337,-5.545 22.187,-2.204 33.037,1.137 40.696,7.54 39.292,12.098 37.888,16.656 27.955,17.643 17.105,14.303 6.255,10.962 -1.403,4.558 0,0" /></g><g
           transform="translate(403.2432,336.5737)"
           id="g548"><path
             id="path550"
             style="fill:#000000;fill-opacity:1;fill-rule:nonzero;stroke:none"
             d="m 0,0 c 1.882,-2.732 7.838,-1.896 13.303,1.867 5.465,3.763 8.369,9.03 6.489,11.762 C 17.909,16.362 11.953,15.526 6.489,11.762 1.023,7.999 -1.881,2.733 0,0" /></g><g
           transform="translate(442.1279,222.5068)"
           id="g552"><path
             id="path554"
             style="fill:#000000;fill-opacity:1;fill-rule:nonzero;stroke:none"
             d="m 0,0 c -8.962,-9.398 -12.257,-20.806 -7.36,-25.476 4.898,-4.67 16.134,-0.838 25.097,8.561 8.962,9.398 12.258,20.806 7.361,25.476 C 20.2,13.23 8.964,9.398 0,0" /></g></g></g><g
       id="g556"><g
         clip-path="url(#clipPath562)"
         id="g558"><g
           id="g564"><g
             id="g566"><g
               clip-path="url(#clipPath572)"
               id="g568"><path
                 id="path580"
                 style="fill:url(#radialGradient578);stroke:none"
                 d="m 418.171,380.589 c -2.459,-0.024 -7.121,-8.038 -1.847,-12.609 v 0 c 4.886,-4.234 12.188,-1.839 13.494,0.437 v 0 1.611 c -1.412,3.644 -9.751,10.561 -11.638,10.561 v 0 z" /></g></g></g></g></g><g
       id="g582"><g
         clip-path="url(#clipPath588)"
         id="g584"><g
           transform="translate(298.5947,308.4609)"
           id="g590"><path
             id="path592"
             style="fill:#000000;fill-opacity:1;fill-rule:nonzero;stroke:none"
             d="M 0,0 C 5.775,-8.486 19.839,-8.979 31.416,-1.104 42.991,6.772 47.694,20.037 41.921,28.522 36.146,37.009 22.082,37.503 10.505,29.626 -1.07,21.75 -5.773,8.485 0,0" /></g><g
           transform="translate(266.4072,351.4873)"
           id="g594"><path
             id="path596"
             style="fill:#000000;fill-opacity:1;fill-rule:nonzero;stroke:none"
             d="m 0,0 c -5.513,-12.051 -4.363,-24.391 2.567,-27.56 6.93,-3.17 17.016,4.031 22.528,16.082 5.513,12.052 4.364,24.391 -2.566,27.561 C 15.599,19.252 5.513,12.051 0,0" /></g><g
           transform="translate(254.5039,264.3555)"
           id="g598"><path
             id="path600"
             style="fill:#000000;fill-opacity:1;fill-rule:nonzero;stroke:none"
             d="m 0,0 c 0,-12.441 6.556,-22.527 14.643,-22.527 8.086,0 14.642,10.086 14.642,22.527 0,12.442 -6.556,22.528 -14.642,22.528 C 6.556,22.528 0,12.442 0,0" /></g><g
           transform="translate(245.4219,296.8926)"
           id="g602"><path
             id="path604"
             style="fill:#000000;fill-opacity:1;fill-rule:nonzero;stroke:none"
             d="m 0,0 c -0.479,-8.695 1.146,-15.855 3.629,-15.992 2.486,-0.138 4.889,6.8 5.369,15.496 C 9.477,8.2 7.853,15.36 5.368,15.498 2.882,15.635 0.481,8.695 0,0" /></g><g
           transform="translate(341.3789,396.1748)"
           id="g606"><path
             id="path608"
             style="fill:#000000;fill-opacity:1;fill-rule:nonzero;stroke:none"
             d="m 0,0 c -4.283,-7.672 -1.896,-17.163 5.331,-21.197 7.228,-4.035 16.558,-1.087 20.842,6.586 4.283,7.672 1.895,17.162 -5.331,21.196 C 13.615,10.62 4.283,7.672 0,0" /></g><g
           transform="translate(334.1235,413.0562)"
           id="g610"><path
             id="path612"
             style="fill:#000000;fill-opacity:1;fill-rule:nonzero;stroke:none"
             d="m 0,0 c 1.016,-1.926 7.502,-0.508 14.49,3.168 6.989,3.677 11.833,8.22 10.819,10.146 -1.014,1.928 -7.5,0.509 -14.49,-3.168 C 3.832,6.469 -1.013,1.927 0,0" /></g><g
           id="g614"><g
             id="g616" /><g
             id="g624"><g
               style="opacity:0.5"
               id="g622"
               clip-path="url(#clipPath620)" /></g></g><g
           id="g626"><g
             id="g628" /><g
             id="g664"><g
               style="opacity:0.5"
               id="g662"
               clip-path="url(#clipPath632)"><g
                 id="g660"><g
                   id="g658"
                   clip-path="url(#clipPath636)"><g
                     id="g656"><g
                       id="g654"><g
                         id="g652"
                         clip-path="url(#clipPath640)"><path
                           id="path650"
                           style="fill:url(#linearGradient648);stroke:none"
                           d="m 370.891,385.88 c -22.248,-14.19 -66.306,-61.971 -75.816,-82.014 v 0 -0.291 c 0.956,-1.208 9.805,-12.109 20.439,-15.565 v 0 c 16.896,21.119 58.998,61.613 87.157,81.472 v 0 c 0,0 -10.594,10.943 -31.126,16.398 v 0 z" /></g></g></g></g></g></g></g></g><g
           id="g666"><g
             id="g668" /><g
             id="g704"><g
               style="opacity:0.5"
               id="g702"
               clip-path="url(#clipPath672)"><g
                 id="g700"><g
                   id="g698"
                   clip-path="url(#clipPath676)"><g
                     id="g696"><g
                       id="g694"><g
                         id="g692"
                         clip-path="url(#clipPath680)"><path
                           id="path690"
                           style="fill:url(#linearGradient688);stroke:none"
                           d="m 242.597,279.157 v -0.83 c 0.07,-28.528 7.409,-58.037 16.772,-72.142 v 0 h 0.026 l 12.53,28.614 v 0.115 c -16.681,13.906 -23.43,44.672 -24.555,79.753 v 0 c -3.298,-10.693 -4.742,-22.992 -4.773,-35.51" /></g></g></g></g></g></g></g></g></g></g><g
       id="g706"><g
         clip-path="url(#clipPath712)"
         id="g708"><g
           id="g714"><g
             id="g716"><g
               clip-path="url(#clipPath722)"
               id="g718"><path
                 id="path730"
                 style="fill:url(#linearGradient728);stroke:none"
                 d="m 521.203,381.893 c 2.93,-13.389 -1.296,-41.075 -19.146,-48.072 v 0 -0.086 l 4.563,-1.423 c 18.021,6.947 20.275,34.918 17.27,48.277 v 0 l -2.431,1.304 z" /></g></g></g></g></g></g></svg>